IKResults
version=1
nRows=5
nColumns=63
inDegrees=yes

Units are S.I. units (second, meters, Newtons, ...)
If the header above contains a line with 'inDegrees', this indicates whether rotational values are in degrees (yes) or radians (no).

endheader
time	pelvis_tilt	pelvis_list	pelvis_rotation	pelvis_tx	pelvis_ty	pelvis_tz	hip_flexion_r	hip_adduction_r	hip_rotation_r	knee_angle_r	knee_angle_r_beta	ankle_angle_r	subtalar_angle_r	mtp_angle_r	hip_flexion_l	hip_adduction_l	hip_rotation_l	knee_angle_l	knee_angle_l_beta	ankle_angle_l	subtalar_angle_l	mtp_angle_l	L5_S1_Flex_Ext	L5_S1_Lat_Bending	L5_S1_axial_rotation	L4_L5_Flex_Ext	L4_L5_Lat_Bending	L4_L5_axial_rotation	L3_L4_Flex_Ext	L3_L4_Lat_Bending	L3_L4_axial_rotation	L2_L3_Flex_Ext	L2_L3_Lat_Bending	L2_L3_axial_rotation	L1_L2_Flex_Ext	L1_L2_Lat_Bending	L1_L2_axial_rotation	L1_T12_Flex_Ext	L1_T12_Lat_Bending	L1_T12_axial_rotation	Abs_r3	Abs_r2	Abs_r1	Abs_t1	Abs_t2	neck_flexion	neck_bending	neck_rotation	arm_flex_r	arm_add_r	arm_rot_r	elbow_flex_r	pro_sup_r	wrist_flex_r	wrist_dev_r	arm_flex_l	arm_add_l	arm_rot_l	elbow_flex_l	pro_sup_l	wrist_flex_l	wrist_dev_l
      4.03333333	     -4.80823333	     -5.73365143	     23.66305725	      0.01500081	      0.94219504	     -0.68107908	      3.98278270	     -2.71745158	     -0.70975827	      6.24414268	      0.10898085	     10.49672781	      3.20510834	      0.00000000	      0.12263831	     -8.94506753	    -21.86515052	      4.89942867	      0.08551116	     11.04010522	    -14.48343937	      0.00000000	      0.95353989	      0.14189568	     -0.08707664	      1.77081893	      0.18872126	     -0.09251893	      1.56657068	      0.34500517	     -0.09251893	      1.08980074	      0.34500517	     -0.07619206	      0.88545714	      0.28935368	     -0.07074977	      0.54485269	      0.21979642	     -0.06530748	      6.81104007	      1.60515237	     -0.48429413	      0.00000000	      0.00000000	     18.35149170	      3.65363654	     -2.51559977	     -5.97836437	    -15.16056650	      9.30096959	     22.21458057	     89.99559364	      0.00000000	      0.00000000	    -17.31448540	    -13.69235287	    -20.89863161	     27.24538641	     89.99559364	      0.00000000	      0.00000000
      4.06666667	     -4.90476819	     -5.74291002	     23.55170534	      0.01648078	      0.94194402	     -0.68152122	      3.91375367	     -2.72366459	     -0.61428399	      6.12348440	      0.10687496	     10.61498708	      3.22148865	      0.00000000	      0.10817957	     -8.89523566	    -21.98008949	      4.91673888	      0.08581328	     11.24807219	    -14.57187170	      0.00000000	      1.02370079	      0.15521057	     -0.10948383	      1.90111474	      0.20643006	     -0.11632657	      1.68183803	      0.37737899	     -0.11632657	      1.16998764	      0.37737899	     -0.09579835	      0.95060856	      0.31650540	     -0.08895561	      0.58494263	      0.24042118	     -0.08211287	      7.31219239	      1.75577304	     -0.60891622	      0.00000000	      0.00000000	     19.03613946	      3.58143807	     -2.46046788	     -5.85547372	    -15.22046647	      9.31706160	     22.03191969	     89.99559364	      0.00000000	      0.00000000	    -17.37718071	    -13.25218727	    -20.76317629	     26.98026234	     89.99559364	      0.00000000	      0.00000000
      4.10000000	     -5.14068039	     -5.86845538	     23.40813997	      0.01791809	      0.94150153	     -0.68207380	      4.04873028	     -2.68564129	     -0.48928642	      6.02583529	      0.10517067	     10.59114019	      3.20560473	      0.00000000	      0.30291717	     -8.91774575	    -22.01692040	      4.99063092	      0.08710294	     11.46128905	    -14.55848592	      0.00000000	      1.11678743	      0.17562608	     -0.09934627	      2.07398594	      0.23358268	     -0.10555542	      1.83477007	      0.42701724	     -0.10555542	      1.27637636	      0.42701724	     -0.08692799	      1.03704881	      0.35813670	     -0.08071885	      0.63813234	      0.27204479	     -0.07450971	      7.97710095	      1.98671731	     -0.55253417	      0.00000000	      0.00000000	     19.91454938	      3.38373948	     -2.22436924	     -5.84042457	    -15.28844728	      9.34178550	     21.78433686	     89.99559364	      0.00000000	      0.00000000	    -17.33763570	    -12.77196880	    -20.51811415	     26.84102255	     89.99559364	      0.00000000	      0.00000000
      4.13333333	     -5.37787706	     -5.94140253	     23.33860735	      0.01933981	      0.94102365	     -0.68283772	      4.15519960	     -2.71030097	     -0.45242566	      5.95149494	      0.10387318	     10.68134269	      3.12498970	      0.00000000	      0.46363938	     -8.86196568	    -22.03163636	      4.99374063	      0.08715722	     11.75503118	    -14.57007056	      0.00000000	      1.20478752	      0.18782657	     -0.08146049	      2.23741091	      0.24980933	     -0.08655178	      1.97934542	      0.45668151	     -0.08655178	      1.37695166	      0.45668151	     -0.07127793	      1.11876569	      0.38301593	     -0.06618665	      0.68841559	      0.29094335	     -0.06109537	      8.60567680	      2.12473167	     -0.45305883	      0.00000000	      0.00000000	     20.54936119	      3.20676271	     -2.04184264	     -5.88776788	    -15.29942237	      9.33715319	     21.61016000	     89.99559364	      0.00000000	      0.00000000	    -17.22047642	    -12.28996109	    -20.28515034	     26.86814215	     89.99559364	      0.00000000	      0.00000000
      4.16666667	     -7.60234658	     -6.91012798	     22.90398037	      0.02243961	      0.93795272	     -0.68395020	      6.52661279	     -2.63617380	      0.37906519	      5.94865734	      0.10382366	     10.32499027	      2.10987467	      0.00000000	      2.85257734	     -8.91958728	    -22.48770780	      5.14915182	      0.08986965	     12.05553669	    -14.08096051	      0.00000000	      1.71410114	      0.20932607	     -0.02163636	      3.18325723	      0.27840367	     -0.02298863	      2.81609677	      0.50895541	     -0.02298863	      1.95904619	      0.50895541	     -0.01893181	      1.59171432	      0.42685772	     -0.01757954	      0.97943739	      0.32424608	     -0.01622727	     12.24365305	      2.36793837	     -0.12033493	      0.00000000	      0.00000000	     19.97762637	      2.86561565	     -1.66699162	     -7.22309477	    -15.28940926	      8.69380159	     21.90857164	     89.99559364	      0.00000000	      0.00000000	    -18.21835455	    -12.24442787	    -17.65914148	     27.20376791	     89.99559364	      0.00000000	      0.00000000
